<mxfile host="app.diagrams.net" agent="Mozilla/5.0 (Windows NT 10.0; Win64; x64) AppleWebKit/537.36 (KHTML, like Gecko) Chrome/135.0.0.0 Safari/537.36" version="26.3.0">
  <diagram name="PÃ¡gina-1" id="Yl4MOyipGiRMbIVigCmQ">
    <mxGraphModel dx="4729" dy="1264" grid="1" gridSize="25" guides="1" tooltips="1" connect="1" arrows="1" fold="1" page="1" pageScale="1" pageWidth="3300" pageHeight="4681" math="0" shadow="0">
      <root>
        <mxCell id="0" />
        <mxCell id="1" parent="0" />
        <mxCell id="IkQ2U5zNaSixECxQ_stJ-13" value="GERAR vale no nome do condutor (desconto do salario)" style="html=1;overflow=block;blockSpacing=1;shape=ext;strokeWidth=2;whiteSpace=wrap;fontSize=13;spacing=3.8;strokeOpacity=100;fillOpacity=100;rounded=1;absoluteArcSize=1;arcSize=9;fillColor=#ffffff;" vertex="1" parent="1">
          <mxGeometry x="1534" y="446.5" width="115.63" height="87" as="geometry" />
        </mxCell>
        <mxCell id="IkQ2U5zNaSixECxQ_stJ-14" value="FIM do processo" style="html=1;overflow=block;blockSpacing=1;whiteSpace=wrap;ellipse;fontSize=16.7;spacing=3.8;strokeOpacity=100;fillOpacity=100;rounded=1;absoluteArcSize=1;arcSize=9;fillColor=#e51400;strokeWidth=2.3;lucidId=RDc.K7-zPRoX;strokeColor=#B20000;fontColor=#ffffff;" vertex="1" parent="1">
          <mxGeometry x="2390" y="441.5" width="88" height="88" as="geometry" />
        </mxCell>
        <mxCell id="IkQ2U5zNaSixECxQ_stJ-15" value="MANDAR o vale para os centros de custos" style="html=1;overflow=block;blockSpacing=1;whiteSpace=wrap;fontSize=16.7;spacing=3.8;strokeOpacity=100;fillOpacity=100;rounded=1;absoluteArcSize=1;arcSize=9;fillColor=#ffffff;strokeWidth=2;lucidId=RDc.0lg_Lp9g;" vertex="1" parent="1">
          <mxGeometry x="1830" y="446.5" width="115.64" height="87" as="geometry" />
        </mxCell>
        <mxCell id="IkQ2U5zNaSixECxQ_stJ-16" value="" style="html=1;jettySize=18;whiteSpace=wrap;fontSize=13;strokeOpacity=100;strokeWidth=2;rounded=1;arcSize=12;edgeStyle=orthogonalEdgeStyle;startArrow=none;endArrow=block;endFill=1;exitX=1;exitY=0.65;exitPerimeter=0;entryX=0;entryY=0.65;entryPerimeter=0;lucidId=RDc.kkx.yRrj;" edge="1" parent="1" source="IkQ2U5zNaSixECxQ_stJ-13" target="IkQ2U5zNaSixECxQ_stJ-15">
          <mxGeometry width="100" height="100" relative="1" as="geometry">
            <Array as="points" />
          </mxGeometry>
        </mxCell>
        <mxCell id="IkQ2U5zNaSixECxQ_stJ-17" value="" style="html=1;jettySize=18;whiteSpace=wrap;fontSize=13;strokeOpacity=100;strokeWidth=2;rounded=1;arcSize=12;edgeStyle=orthogonalEdgeStyle;startArrow=none;endArrow=block;endFill=1;exitX=1;exitY=0.5;exitPerimeter=0;entryX=0;entryY=0.5;entryPerimeter=0;lucidId=RDc.0ag1q80U;" edge="1" parent="1" source="IkQ2U5zNaSixECxQ_stJ-15" target="IkQ2U5zNaSixECxQ_stJ-18">
          <mxGeometry width="100" height="100" relative="1" as="geometry">
            <Array as="points" />
          </mxGeometry>
        </mxCell>
        <mxCell id="IkQ2U5zNaSixECxQ_stJ-18" value="DAR BAIXA  no  SAP e pagar multa" style="html=1;overflow=block;blockSpacing=1;whiteSpace=wrap;fontSize=16.7;spacing=3.8;strokeOpacity=100;fillOpacity=100;rounded=1;absoluteArcSize=1;arcSize=9;fillColor=#ffffff;strokeWidth=2;lucidId=RDc.~UvBsBiQ;" vertex="1" parent="1">
          <mxGeometry x="2070" y="441.5" width="128.92" height="97" as="geometry" />
        </mxCell>
        <mxCell id="IkQ2U5zNaSixECxQ_stJ-19" value="" style="html=1;jettySize=18;whiteSpace=wrap;fontSize=13;strokeOpacity=100;strokeWidth=2;rounded=1;arcSize=12;edgeStyle=orthogonalEdgeStyle;startArrow=none;endArrow=block;endFill=1;exitX=1;exitY=0.7;exitPerimeter=0;entryX=0.05;entryY=0.75;entryPerimeter=0;lucidId=RDc.S1-7Dpqa;" edge="1" parent="1" source="IkQ2U5zNaSixECxQ_stJ-18" target="IkQ2U5zNaSixECxQ_stJ-14">
          <mxGeometry width="100" height="100" relative="1" as="geometry">
            <Array as="points" />
          </mxGeometry>
        </mxCell>
        <mxCell id="IkQ2U5zNaSixECxQ_stJ-30" value="INDENTIFICAR o condutor" style="html=1;overflow=block;blockSpacing=1;shape=ext;strokeWidth=2;whiteSpace=wrap;fontSize=13;spacing=3.8;strokeOpacity=100;fillOpacity=100;rounded=1;absoluteArcSize=1;arcSize=9;fillColor=#ffffff;" vertex="1" parent="1">
          <mxGeometry x="220" y="800" width="210" height="158" as="geometry" />
        </mxCell>
        <mxCell id="IkQ2U5zNaSixECxQ_stJ-31" value="NOTIFICAR o condutor e &#x9;ASSINAR os papeis" style="html=1;overflow=block;blockSpacing=1;shape=ext;strokeWidth=2;whiteSpace=wrap;fontSize=13;spacing=3.8;strokeOpacity=100;fillOpacity=100;rounded=1;absoluteArcSize=1;arcSize=9;fillColor=#ffffff;" vertex="1" parent="1">
          <mxGeometry x="560" y="790" width="210" height="158" as="geometry" />
        </mxCell>
        <mxCell id="IkQ2U5zNaSixECxQ_stJ-32" value="" style="html=1;jettySize=18;whiteSpace=wrap;fontSize=13;strokeOpacity=100;strokeWidth=1.5;rounded=1;arcSize=12;edgeStyle=orthogonalEdgeStyle;startArrow=none;endArrow=block;endFill=1;exitX=1.009;exitY=0.5;exitPerimeter=0;entryX=-0.009;entryY=0.5;entryPerimeter=0;lucidId=3Qyd2RNyzFQW;" edge="1" parent="1" source="IkQ2U5zNaSixECxQ_stJ-31" target="IkQ2U5zNaSixECxQ_stJ-33">
          <mxGeometry width="100" height="100" relative="1" as="geometry">
            <Array as="points" />
          </mxGeometry>
        </mxCell>
        <mxCell id="IkQ2U5zNaSixECxQ_stJ-33" value="DEVOLVER os documentos assinados" style="html=1;overflow=block;blockSpacing=1;shape=ext;strokeWidth=2;whiteSpace=wrap;fontSize=13;spacing=3.8;strokeOpacity=100;fillOpacity=100;rounded=1;absoluteArcSize=1;arcSize=9;fillColor=#ffffff;" vertex="1" parent="1">
          <mxGeometry x="850" y="780" width="210" height="158" as="geometry" />
        </mxCell>
        <mxCell id="IkQ2U5zNaSixECxQ_stJ-34" value=" o cadastro do motorista" style="html=1;overflow=block;blockSpacing=1;whiteSpace=wrap;fontSize=16.7;fontColor=#282c33;spacing=3.8;strokeOpacity=100;fillOpacity=100;rounded=1;absoluteArcSize=1;arcSize=9;fillColor=#ffffff;strokeWidth=2.3;lucidId=3QydQoicJ8Tm;" vertex="1" parent="1">
          <mxGeometry x="160" y="422.5" width="202" height="152" as="geometry" />
        </mxCell>
        <mxCell id="IkQ2U5zNaSixECxQ_stJ-35" value="DIGITALIZAR o processo e colocar no sap" style="html=1;overflow=block;blockSpacing=1;whiteSpace=wrap;fontSize=16.7;fontColor=#282c33;spacing=3.8;strokeOpacity=100;fillOpacity=100;rounded=1;absoluteArcSize=1;arcSize=9;fillColor=#ffffff;strokeWidth=2.3;lucidId=3Qydl66xmn-z;" vertex="1" parent="1">
          <mxGeometry x="500" y="420" width="202" height="152" as="geometry" />
        </mxCell>
        <mxCell id="IkQ2U5zNaSixECxQ_stJ-36" value="DAR BAIXA no documento e subir pra aplanilha" style="html=1;overflow=block;blockSpacing=1;whiteSpace=wrap;fontSize=16.7;fontColor=#282c33;spacing=3.8;strokeOpacity=100;fillOpacity=100;rounded=1;absoluteArcSize=1;arcSize=9;fillColor=#ffffff;strokeWidth=2.3;lucidId=3QydXXpNSGqp;" vertex="1" parent="1">
          <mxGeometry x="790" y="414" width="202" height="152" as="geometry" />
        </mxCell>
        <mxCell id="IkQ2U5zNaSixECxQ_stJ-37" value="PAGAR multas" style="html=1;overflow=block;blockSpacing=1;whiteSpace=wrap;fontSize=16.7;fontColor=#282c33;spacing=3.8;strokeOpacity=100;fillOpacity=100;rounded=1;absoluteArcSize=1;arcSize=9;fillColor=#ffffff;strokeWidth=2.3;lucidId=3Qyd8LBBsG2b;" vertex="1" parent="1">
          <mxGeometry x="1190" y="417" width="202" height="152" as="geometry" />
        </mxCell>
        <mxCell id="IkQ2U5zNaSixECxQ_stJ-38" value="" style="html=1;jettySize=18;whiteSpace=wrap;fontSize=13;strokeOpacity=100;strokeWidth=1.5;rounded=1;arcSize=12;edgeStyle=orthogonalEdgeStyle;startArrow=none;endArrow=block;endFill=1;exitX=1.006;exitY=0.669;exitPerimeter=0;entryX=-0.006;entryY=0.669;entryPerimeter=0;lucidId=3QydcWDQ9jzg;" edge="1" parent="1" source="IkQ2U5zNaSixECxQ_stJ-34" target="IkQ2U5zNaSixECxQ_stJ-35">
          <mxGeometry width="100" height="100" relative="1" as="geometry">
            <Array as="points" />
          </mxGeometry>
        </mxCell>
        <mxCell id="IkQ2U5zNaSixECxQ_stJ-39" value="" style="html=1;jettySize=18;whiteSpace=wrap;fontSize=13;strokeOpacity=100;strokeWidth=1.5;rounded=1;arcSize=12;edgeStyle=orthogonalEdgeStyle;startArrow=none;endArrow=block;endFill=1;exitX=1.006;exitY=0.729;exitPerimeter=0;entryX=-0.006;entryY=0.729;entryPerimeter=0;lucidId=3Qyd_11qaHNB;" edge="1" parent="1" source="IkQ2U5zNaSixECxQ_stJ-35" target="IkQ2U5zNaSixECxQ_stJ-36">
          <mxGeometry width="100" height="100" relative="1" as="geometry">
            <Array as="points" />
          </mxGeometry>
        </mxCell>
        <mxCell id="IkQ2U5zNaSixECxQ_stJ-41" value="" style="html=1;jettySize=18;whiteSpace=wrap;fontSize=13;strokeOpacity=100;strokeWidth=1.5;rounded=1;arcSize=12;edgeStyle=orthogonalEdgeStyle;startArrow=none;endArrow=block;endFill=1;exitX=1;exitY=0.65;exitPerimeter=0;entryX=0;entryY=0.65;entryPerimeter=0;lucidId=3Qydl2mF4mZA;" edge="1" parent="1" source="IkQ2U5zNaSixECxQ_stJ-30" target="IkQ2U5zNaSixECxQ_stJ-31">
          <mxGeometry width="100" height="100" relative="1" as="geometry">
            <Array as="points" />
          </mxGeometry>
        </mxCell>
        <mxCell id="IkQ2U5zNaSixECxQ_stJ-42" value="" style="html=1;jettySize=18;whiteSpace=wrap;fontSize=13;strokeOpacity=100;strokeWidth=1.5;rounded=1;arcSize=12;edgeStyle=orthogonalEdgeStyle;startArrow=none;endArrow=block;endFill=1;exitX=1.006;exitY=0.66;exitPerimeter=0;entryX=-0.006;entryY=0.68;entryPerimeter=0;lucidId=3QydeHKuttf7;" edge="1" parent="1" source="IkQ2U5zNaSixECxQ_stJ-36" target="IkQ2U5zNaSixECxQ_stJ-37">
          <mxGeometry width="100" height="100" relative="1" as="geometry">
            <Array as="points" />
          </mxGeometry>
        </mxCell>
        <mxCell id="IkQ2U5zNaSixECxQ_stJ-46" value="ENTREGAR 3 DOCS, multa,fici e vale ENVIAR para os centros de custo" style="html=1;overflow=block;blockSpacing=1;whiteSpace=wrap;fontSize=16.7;fontColor=#282c33;spacing=3.8;strokeOpacity=100;fillOpacity=100;rounded=1;absoluteArcSize=1;arcSize=9;fillColor=#ffffff;strokeWidth=2.3;lucidId=3Qydbtq3eXJ5;" vertex="1" parent="1">
          <mxGeometry x="-320" y="420" width="155" height="146" as="geometry" />
        </mxCell>
        <mxCell id="IkQ2U5zNaSixECxQ_stJ-47" value="NOTIFICAR o centro de custo " style="html=1;overflow=block;blockSpacing=1;whiteSpace=wrap;fontSize=16.7;spacing=3.8;strokeOpacity=100;fillOpacity=100;rounded=1;absoluteArcSize=1;arcSize=9;fillColor=#ffffff;strokeWidth=2.3;lucidId=3QydXbiihC8g;" vertex="1" parent="1">
          <mxGeometry x="-90" y="431" width="180" height="135" as="geometry" />
        </mxCell>
        <mxCell id="IkQ2U5zNaSixECxQ_stJ-48" value="" style="html=1;jettySize=18;whiteSpace=wrap;fontSize=13;strokeOpacity=100;strokeWidth=1.5;rounded=1;arcSize=12;edgeStyle=orthogonalEdgeStyle;startArrow=none;endArrow=block;endFill=1;exitX=1;exitY=0.65;exitPerimeter=0;entryX=0;entryY=0.65;entryPerimeter=0;lucidId=3QydQQPcDw4V;" edge="1" parent="1" source="IkQ2U5zNaSixECxQ_stJ-46" target="IkQ2U5zNaSixECxQ_stJ-47">
          <mxGeometry width="100" height="100" relative="1" as="geometry">
            <Array as="points" />
          </mxGeometry>
        </mxCell>
        <mxCell id="IkQ2U5zNaSixECxQ_stJ-49" value="" style="html=1;jettySize=18;whiteSpace=wrap;fontSize=13;strokeOpacity=100;strokeWidth=1.5;rounded=1;arcSize=12;edgeStyle=orthogonalEdgeStyle;startArrow=none;endArrow=block;endFill=1;exitX=1;exitY=0.8;exitPerimeter=0;entryX=0;entryY=0.7;entryPerimeter=0;lucidId=3QydTLc~AF0X;" edge="1" parent="1" source="IkQ2U5zNaSixECxQ_stJ-47" target="IkQ2U5zNaSixECxQ_stJ-34">
          <mxGeometry width="100" height="100" relative="1" as="geometry">
            <Array as="points" />
          </mxGeometry>
        </mxCell>
        <mxCell id="IkQ2U5zNaSixECxQ_stJ-54" value="notificaÃ§ao do detran(senatran)" style="html=1;overflow=block;blockSpacing=1;whiteSpace=wrap;ellipse;fontSize=16.7;fontColor=#282c33;spacing=3.8;strokeOpacity=100;fillOpacity=100;rounded=1;absoluteArcSize=1;arcSize=9;fillColor=#54c45e;strokeWidth=2.3;lucidId=UQydNNi3cV52;" vertex="1" parent="1">
          <mxGeometry x="-1800" y="410" width="130" height="130" as="geometry" />
        </mxCell>
        <mxCell id="IkQ2U5zNaSixECxQ_stJ-55" value="INDENTIFICAR a frota (placa e veiculo)" style="html=1;overflow=block;blockSpacing=1;whiteSpace=wrap;fontSize=16.7;fontColor=#282c33;spacing=9;strokeOpacity=100;fillOpacity=100;rounded=1;absoluteArcSize=1;arcSize=9;fillColor=#ffffff;strokeWidth=2.3;lucidId=UQydCidhdUnr;" vertex="1" parent="1">
          <mxGeometry x="-1530" y="400" width="200" height="150" as="geometry" />
        </mxCell>
        <mxCell id="IkQ2U5zNaSixECxQ_stJ-56" value="INDENTIFICAR o centro de custo" style="html=1;overflow=block;blockSpacing=1;whiteSpace=wrap;fontSize=16.7;fontColor=#282c33;spacing=9;strokeOpacity=100;fillOpacity=100;rounded=1;absoluteArcSize=1;arcSize=9;fillColor=#ffffff;strokeWidth=2.3;lucidId=UQyd4ssZ1c0s;" vertex="1" parent="1">
          <mxGeometry x="-1190" y="400" width="200" height="150" as="geometry" />
        </mxCell>
        <mxCell id="IkQ2U5zNaSixECxQ_stJ-57" value="" style="html=1;jettySize=18;whiteSpace=wrap;fontSize=13;strokeOpacity=100;strokeWidth=1.5;rounded=1;arcSize=12;edgeStyle=orthogonalEdgeStyle;startArrow=none;endArrow=block;endFill=1;exitX=1.002;exitY=0.555;exitPerimeter=0;lucidId=UQydB5D617Wq;" edge="1" parent="1" source="IkQ2U5zNaSixECxQ_stJ-54">
          <mxGeometry width="100" height="100" relative="1" as="geometry">
            <Array as="points" />
            <mxPoint x="-1530" y="482" as="targetPoint" />
          </mxGeometry>
        </mxCell>
        <mxCell id="IkQ2U5zNaSixECxQ_stJ-58" value="" style="html=1;jettySize=18;whiteSpace=wrap;fontSize=13;strokeOpacity=100;strokeWidth=1.5;rounded=1;arcSize=12;edgeStyle=orthogonalEdgeStyle;startArrow=none;endArrow=block;endFill=1;exitX=1.006;exitY=0.642;exitPerimeter=0;entryX=-0.006;entryY=0.642;entryPerimeter=0;lucidId=UQydxWJbqX-4;" edge="1" parent="1" source="IkQ2U5zNaSixECxQ_stJ-55" target="IkQ2U5zNaSixECxQ_stJ-56">
          <mxGeometry width="100" height="100" relative="1" as="geometry">
            <Array as="points" />
          </mxGeometry>
        </mxCell>
        <mxCell id="IkQ2U5zNaSixECxQ_stJ-59" value="CADASTRAR multa no excel" style="html=1;overflow=block;blockSpacing=1;whiteSpace=wrap;fontSize=16.7;fontColor=#282c33;spacing=3.8;strokeOpacity=100;fillOpacity=100;rounded=1;absoluteArcSize=1;arcSize=9;fillColor=#ffffff;strokeWidth=2.3;lucidId=UQyd89n-yk~3;" vertex="1" parent="1">
          <mxGeometry x="-890" y="405" width="200" height="150" as="geometry" />
        </mxCell>
        <mxCell id="IkQ2U5zNaSixECxQ_stJ-60" value="" style="html=1;jettySize=18;whiteSpace=wrap;fontSize=13;strokeOpacity=100;strokeWidth=1.5;rounded=1;arcSize=12;edgeStyle=orthogonalEdgeStyle;startArrow=none;endArrow=block;endFill=1;exitX=1.006;exitY=0.717;exitPerimeter=0;entryX=-0.006;entryY=0.717;entryPerimeter=0;lucidId=UQydoy2VyxxR;" edge="1" parent="1" source="IkQ2U5zNaSixECxQ_stJ-56" target="IkQ2U5zNaSixECxQ_stJ-59">
          <mxGeometry width="100" height="100" relative="1" as="geometry">
            <Array as="points" />
          </mxGeometry>
        </mxCell>
        <mxCell id="IkQ2U5zNaSixECxQ_stJ-61" value="PREENCHER o sap com informaÃ§oes da multa" style="html=1;overflow=block;blockSpacing=1;whiteSpace=wrap;fontSize=16.7;spacing=3.8;strokeOpacity=100;fillOpacity=100;rounded=1;absoluteArcSize=1;arcSize=9;fillColor=#ffffff;strokeWidth=2.3;lucidId=UQydL7hY27zk;" vertex="1" parent="1">
          <mxGeometry x="-610" y="420" width="195" height="146" as="geometry" />
        </mxCell>
        <mxCell id="IkQ2U5zNaSixECxQ_stJ-62" value="" style="html=1;jettySize=18;whiteSpace=wrap;fontSize=13;strokeOpacity=100;strokeWidth=1.5;rounded=1;arcSize=12;edgeStyle=orthogonalEdgeStyle;startArrow=none;endArrow=block;endFill=1;exitX=1.006;exitY=0.686;exitPerimeter=0;entryX=-0.006;entryY=0.704;entryPerimeter=0;lucidId=UQydhYRYUFXa;" edge="1" parent="1" source="IkQ2U5zNaSixECxQ_stJ-59" target="IkQ2U5zNaSixECxQ_stJ-61">
          <mxGeometry width="100" height="100" relative="1" as="geometry">
            <Array as="points" />
          </mxGeometry>
        </mxCell>
        <mxCell id="IkQ2U5zNaSixECxQ_stJ-63" value="" style="html=1;jettySize=18;whiteSpace=wrap;fontSize=13;strokeOpacity=100;strokeWidth=1.5;rounded=1;arcSize=12;edgeStyle=orthogonalEdgeStyle;startArrow=none;endArrow=block;endFill=1;exitX=1.006;exitY=0.672;exitPerimeter=0;lucidId=UQydot-u9gJQ;entryX=0;entryY=0.5;entryDx=0;entryDy=0;" edge="1" parent="1" source="IkQ2U5zNaSixECxQ_stJ-61" target="IkQ2U5zNaSixECxQ_stJ-46">
          <mxGeometry width="100" height="100" relative="1" as="geometry">
            <Array as="points" />
            <mxPoint x="-451" y="209" as="targetPoint" />
          </mxGeometry>
        </mxCell>
      </root>
    </mxGraphModel>
  </diagram>
</mxfile>
